# xmcd
#
# Track frame offsets: 
#        150
#        10525
#        25386
#        40387
#        54932
#        69056
#        71586
#        84270
#        96651
#        115350
#        125945
#        131163
#        145416
#        159967
#        169720
#
# Disc length: 2282 seconds
#
# Revision: 0
# Processed by: cddbd v1.5.2PL0 Copyright (c) Steve Scherf et al.
# Submitted via: ExactAudioCopyFreeDBPlugin 1.0
#
DISCID=cd08e80f
DTITLE=Absztrakkt - Mama sagt knock ihn aus!
DYEAR=2018
DGENRE=Rap
TTITLE0=Stadt des Nichts
TTITLE1=Eiserne Fronten
TTITLE2=Buch der Scheidewege
TTITLE3=Lederner Gürtel
TTITLE4=Jedi Tricks
TTITLE5=Mama sagt knock ihn aus Skit
TTITLE6=Herzenswunsch
TTITLE7=Insidejob
TTITLE8=Free Willy
TTITLE9=Uppercuts
TTITLE10=Kreuz
TTITLE11=Immer wieder
TTITLE12=König des Kummers
TTITLE13=Keine Diskussionen
TTITLE14=Outro
EXTD=
EXTT0=
EXTT1=
EXTT2=
EXTT3=
EXTT4=
EXTT5=
EXTT6=
EXTT7=
EXTT8=
EXTT9=
EXTT10=
EXTT11=
EXTT12=
EXTT13=
EXTT14=
PLAYORDER=
